<svg width="238" height="48" viewBox="0 0 238 48" fill="none" xmlns="http://www.w3.org/2000/svg" role="img" aria-labelledby="title desc">
  <title id="title">Project-AI-X logo</title>
  <desc id="desc">Wordmark for Project-AI-X on product cards.</desc>
  <defs>
    <linearGradient id="g" x1="4" y1="5" x2="47" y2="43" gradientUnits="userSpaceOnUse">
      <stop stop-color="#059669"/>
      <stop offset="0.48" stop-color="#0d9488"/>
      <stop offset="1" stop-color="#b8963f"/>
    </linearGradient>
  </defs>
  <rect x="4" y="4" width="40" height="40" rx="13" fill="rgba(5,150,105,0.08)" stroke="rgba(5,150,105,0.22)"/>
  <path d="M14 15.8C16.6 12.9 20.4 11 24.8 11C32.2 11 38.2 16.7 38.7 23.9" stroke="url(#g)" stroke-width="2.4" stroke-linecap="round"/>
  <path d="M34.5 32.2C31.9 35.1 28.1 37 23.7 37C16.3 37 10.3 31.3 9.8 24.1" stroke="url(#g)" stroke-width="2.4" stroke-linecap="round"/>
  <path d="M15 34L34 14" stroke="url(#g)" stroke-width="3.2" stroke-linecap="round"/>
  <path d="M16 14L34 34" stroke="url(#g)" stroke-width="3.2" stroke-linecap="round"/>
  <circle cx="14" cy="15" r="3" fill="#059669"/>
  <circle cx="34" cy="14" r="3" fill="#0d9488"/>
  <circle cx="34" cy="34" r="3" fill="#b8963f"/>
  <text x="56" y="23" fill="#0c1815" font-family="Arial, Helvetica, sans-serif" font-size="18" font-weight="700" letter-spacing="-0.035em">Project-AI-X</text>
  <text x="57" y="37" fill="#5c726b" font-family="Arial, Helvetica, sans-serif" font-size="8.6" font-weight="700" letter-spacing="0.15em">DOMAIN RUNTIME PLATFORM</text>
</svg>
